<svg width="24" height="24" viewBox="0 0 24 24" fill="none" xmlns="http://www.w3.org/2000/svg">
<path d="M4.5 9.20055C4.5 6.51328 4.5 5.16965 5.32376 4.33483C6.14752 3.5 7.47335 3.5 10.125 3.5H13.875C16.5267 3.5 17.8525 3.5 18.6762 4.33483C19.5 5.16965 19.5 6.51328 19.5 9.20055V15.6874C19.5 18.2368 19.5 19.5115 18.7085 19.9013C17.9169 20.2912 16.9279 19.5037 14.9499 17.9286L14.3168 17.4245C13.2046 16.5389 12.6485 16.0961 12 16.0961C11.3515 16.0961 10.7954 16.5389 9.68317 17.4245L9.05012 17.9286C7.07207 19.5037 6.08305 20.2912 5.29153 19.9013C4.5 19.5115 4.5 18.2368 4.5 15.6874V9.20055Z" stroke="#E3E3E3" stroke-width="1.7"/>
</svg>
