<svg width="24" height="24" viewBox="0 0 24 24" fill="none" xmlns="http://www.w3.org/2000/svg">
<path d="M19.3259 5.35577C20 6.40897 20 7.8751 20 10.8074C20 13.7396 20 15.2057 19.3259 16.2589C19.034 16.7149 18.659 17.1063 18.2223 17.411C17.3409 18.0257 16.1577 18.1035 14 18.1133V18.1147L12.8944 20.4229C12.5259 21.1924 11.4741 21.1924 11.1056 20.4229L10 18.1147V18.1133C7.8423 18.1035 6.65907 18.0257 5.77772 17.411C5.34096 17.1063 4.96596 16.7149 4.67412 16.2589C4 15.2057 4 13.7396 4 10.8074C4 7.8751 4 6.40897 4.67412 5.35577C4.96596 4.89984 5.34096 4.50837 5.77772 4.20372C6.78661 3.5 8.19108 3.5 11 3.5H13C15.8089 3.5 17.2134 3.5 18.2223 4.20372C18.659 4.50837 19.034 4.89984 19.3259 5.35577Z" stroke="#E3E3E3" stroke-width="1.7" stroke-linecap="round" stroke-linejoin="round"/>
<path d="M9 9L15 9" stroke="#E3E3E3" stroke-width="1.7" stroke-linecap="round" stroke-linejoin="round"/>
<path d="M9 13H12" stroke="#E3E3E3" stroke-width="1.7" stroke-linecap="round" stroke-linejoin="round"/>
</svg>
