<svg width="24" height="24" viewBox="0 0 24 24" fill="none" xmlns="http://www.w3.org/2000/svg">
<path d="M4.45067 12.9082L11.4033 19.4395C11.6428 19.6644 11.7625 19.7769 11.9037 19.8046C11.9673 19.8171 12.0327 19.8171 12.0963 19.8046C12.2375 19.7769 12.3572 19.6644 12.5967 19.4395L19.5493 12.9082C21.5055 11.0706 21.743 8.0466 20.0978 5.92607L19.7885 5.52734C17.8203 2.99058 13.8696 3.41601 12.4867 6.31365C12.2913 6.72296 11.7087 6.72296 11.5133 6.31365C10.1304 3.41601 6.17972 2.99058 4.21154 5.52735L3.90219 5.92607C2.25695 8.0466 2.4945 11.0706 4.45067 12.9082Z" stroke="#E3E3E3" stroke-width="1.7"/>
</svg>
