<svg width="22" height="22" viewBox="0 0 22 22" fill="none" xmlns="http://www.w3.org/2000/svg">
<g filter="url(#filter0_d_156_9208)">
<path d="M5.96708 9.27149L10.6022 13.6256C10.654 13.6744 10.6799 13.6987 10.7046 13.7168C10.8805 13.8455 11.1195 13.8455 11.2953 13.7168C11.32 13.6987 11.3459 13.6744 11.3978 13.6256L16.0328 9.27149C17.337 8.04641 17.4953 6.03042 16.3985 4.61673L16.1923 4.35091C14.8801 2.65973 12.2464 2.94336 11.3244 4.87512C11.1942 5.14799 10.8057 5.14799 10.6755 4.87512C9.75354 2.94336 7.11977 2.65974 5.80766 4.35091L5.60142 4.61673C4.50459 6.03042 4.66296 8.04641 5.96708 9.27149Z" fill="#FF3D6B"/>
</g>
<defs>
<filter id="filter0_d_156_9208" x="-1" y="0" width="24" height="24" filterUnits="userSpaceOnUse" color-interpolation-filters="sRGB">
<feFlood flood-opacity="0" result="BackgroundImageFix"/>
<feColorMatrix in="SourceAlpha" type="matrix" values="0 0 0 0 0 0 0 0 0 0 0 0 0 0 0 0 0 0 127 0" result="hardAlpha"/>
<feOffset dy="4"/>
<feGaussianBlur stdDeviation="2"/>
<feComposite in2="hardAlpha" operator="out"/>
<feColorMatrix type="matrix" values="0 0 0 0 0 0 0 0 0 0 0 0 0 0 0 0 0 0 0.25 0"/>
<feBlend mode="normal" in2="BackgroundImageFix" result="effect1_dropShadow_156_9208"/>
<feBlend mode="normal" in="SourceGraphic" in2="effect1_dropShadow_156_9208" result="shape"/>
</filter>
</defs>
</svg>
