<svg width="16" height="16" viewBox="0 0 16 16" fill="none" xmlns="http://www.w3.org/2000/svg">
<path d="M2.96708 9.27149L7.60215 13.6256C7.65399 13.6744 7.67991 13.6987 7.7046 13.7168C7.88046 13.8455 8.11946 13.8455 8.29532 13.7168C8.32 13.6987 8.34592 13.6744 8.39777 13.6256L13.0328 9.27149C14.337 8.04641 14.4953 6.03042 13.3985 4.61673L13.1923 4.35091C11.8801 2.65973 9.24638 2.94336 8.3244 4.87512C8.19417 5.14799 7.80575 5.14799 7.67551 4.87512C6.75354 2.94336 4.11977 2.65974 2.80766 4.35091L2.60142 4.61673C1.50459 6.03042 1.66296 8.04641 2.96708 9.27149Z" stroke="#7D7D7D" stroke-width="1.2"/>
</svg>
