<svg width="16" height="17" viewBox="0 0 16 17" fill="none" xmlns="http://www.w3.org/2000/svg">
<g clip-path="url(#clip0_134_5447)">
<path d="M16 8.38887C16 7.83146 15.955 7.27103 15.8591 6.72266H8.16046V9.88033H12.5691C12.3861 10.8987 11.7983 11.7996 10.9376 12.3721V14.421H13.5678C15.1123 12.9928 16 10.8837 16 8.38887Z" fill="#4285F4"/>
<path d="M8.16042 16.4002C10.3617 16.4002 12.2182 15.674 13.5707 14.4206L10.9406 12.3717C10.2088 12.8719 9.26408 13.1551 8.16342 13.1551C6.03408 13.1551 4.22865 11.7119 3.58085 9.77148H0.866699V11.8836C2.25227 14.6526 5.07438 16.4002 8.16042 16.4002Z" fill="#34A853"/>
<path d="M3.57786 9.77127C3.23596 8.75286 3.23596 7.65008 3.57786 6.63168V4.51953H0.866703C-0.290935 6.83656 -0.290935 9.56638 0.866703 11.8834L3.57786 9.77127Z" fill="#FBBC04"/>
<path d="M8.16042 3.2456C9.32406 3.22752 10.4487 3.66743 11.2914 4.47492L13.6217 2.13379C12.1462 0.741762 10.1878 -0.0235518 8.16042 0.000552588C5.07438 0.000552588 2.25227 1.74812 0.866699 4.52012L3.57785 6.63226C4.22265 4.68885 6.03109 3.2456 8.16042 3.2456Z" fill="#EA4335"/>
</g>
<defs>
<clipPath id="clip0_134_5447">
<rect width="16" height="16.4" fill="white"/>
</clipPath>
</defs>
</svg>
