<svg width="20" height="20" viewBox="0 0 20 20" fill="none" xmlns="http://www.w3.org/2000/svg">
<path fill-rule="evenodd" clip-rule="evenodd" d="M1.99997 4.33855C1.66663 5.52089 1.66663 7.1856 1.66663 9.66602V10.3327C1.66663 14.1039 1.66663 15.9895 2.8382 17.1611C4.00977 18.3327 5.89539 18.3327 9.66663 18.3327H10.3333C14.1045 18.3327 15.9901 18.3327 17.1617 17.1611C18.3333 15.9895 18.3333 14.1039 18.3333 10.3327V9.66601C18.3333 7.18565 18.3333 5.52096 18 4.33863V13.9993C17.1416 13.9993 16.3136 13.6816 15.6756 13.1074L15.0302 12.5265L15.0301 12.5265C14.4836 12.0347 14.2104 11.7887 13.9166 11.6594C13.4033 11.4336 12.8188 11.4336 12.3056 11.6594C12.0118 11.7887 11.7385 12.0347 11.192 12.5265L11.192 12.5265L11.0727 12.6339C10.6021 13.0574 10.3668 13.2692 10.126 13.3297C9.83489 13.4028 9.52627 13.3413 9.28543 13.1621C9.08626 13.0139 8.94891 12.7255 8.67422 12.1486C8.10409 10.9513 7.81903 10.3527 7.39951 10.0523C6.93213 9.71764 6.34335 9.60026 5.78337 9.73011C5.28073 9.84666 4.79227 10.2863 3.81534 11.1655L3.81533 11.1655L1.99997 12.7993V4.33855ZM4.33922 1.99934H15.6607C14.4784 1.66602 12.8137 1.66602 10.3333 1.66602H9.66663C7.18625 1.66602 5.52155 1.66602 4.33922 1.99934Z" fill="#E3E3E3"/>
<path d="M2.51663 9.66602C2.51663 7.75637 2.51843 6.40964 2.65549 5.39019C2.78927 4.39519 3.03771 3.84016 3.43924 3.43863C3.84077 3.0371 4.3958 2.78866 5.3908 2.65488C6.41025 2.51782 7.75698 2.51602 9.66663 2.51602H10.3333C12.2429 2.51602 13.5897 2.51782 14.6091 2.65488C15.6041 2.78866 16.1591 3.0371 16.5607 3.43863C16.9622 3.84016 17.2107 4.39519 17.3444 5.39019C17.4815 6.40964 17.4833 7.75637 17.4833 9.66601V10.3327C17.4833 12.2423 17.4815 13.5891 17.3444 14.6085C17.2107 15.6035 16.9622 16.1585 16.5607 16.5601C16.1591 16.9616 15.6041 17.21 14.6091 17.3438C13.5897 17.4809 12.2429 17.4827 10.3333 17.4827H9.66663C7.75698 17.4827 6.41025 17.4809 5.3908 17.3438C4.3958 17.21 3.84077 16.9616 3.43924 16.5601C3.03771 16.1585 2.78927 15.6035 2.65549 14.6085C2.51843 13.5891 2.51663 12.2423 2.51663 10.3327V9.66602Z" stroke="#E3E3E3" stroke-width="1.7"/>
<circle cx="12.5" cy="7.50065" r="1.66667" fill="#E3E3E3"/>
</svg>
