<svg width="24" height="24" viewBox="0 0 24 24" fill="none" xmlns="http://www.w3.org/2000/svg">
<path fill-rule="evenodd" clip-rule="evenodd" d="M18.6571 17.5601C18.8914 17.7944 18.8914 18.1743 18.6571 18.4086C18.4228 18.6429 18.0429 18.6429 17.8086 18.4086L5.42426 6.02426C5.18995 5.78995 5.18995 5.41005 5.42426 5.17574C5.65858 4.94142 6.03848 4.94142 6.27279 5.17574L8.04141 6.94435C9.13976 6.33433 10.46 5.91816 12.0181 5.91816C15.7582 5.91816 18.128 8.31611 19.3472 10.0371C19.8189 10.703 20.0548 11.0359 20.0352 11.7047C20.0156 12.3735 19.7469 12.7091 19.2096 13.3804C18.6212 14.1157 17.8205 14.9875 16.8432 15.7461L18.6571 17.5601ZM14.7537 13.6567C15.1305 13.1167 15.3515 12.4599 15.3515 11.7515C15.3515 9.91054 13.8591 8.41816 12.0181 8.41816C11.3098 8.41816 10.653 8.63913 10.113 9.01592L14.7537 13.6567ZM14.5033 17.1028L12.4567 15.0562C12.3132 15.0751 12.1668 15.0848 12.0181 15.0848C10.1772 15.0848 8.68481 13.5924 8.68481 11.7515C8.68481 11.6028 8.69454 11.4564 8.71341 11.3129L5.94433 8.54383C5.43778 9.05041 5.02084 9.56882 4.6891 10.0371C4.21739 10.703 3.98153 11.0359 4.00113 11.7047C4.02073 12.3735 4.28937 12.7091 4.82664 13.3804C6.20792 15.1063 8.75896 17.5848 12.0181 17.5848C12.9016 17.5848 13.7331 17.4027 14.5033 17.1028Z" fill="#C8C8C8"/>
</svg>
