<svg width="24" height="24" viewBox="0 0 24 24" fill="none" xmlns="http://www.w3.org/2000/svg">
<path fill-rule="evenodd" clip-rule="evenodd" d="M4.6891 10.1189C5.90828 8.39795 8.27809 6 12.0181 6C15.7582 6 18.128 8.39795 19.3472 10.1189C19.8189 10.7848 20.0548 11.1178 20.0352 11.7865C20.0156 12.4553 19.7469 12.7909 19.2096 13.4623C17.8284 15.1881 15.2773 17.6667 12.0181 17.6667C8.75896 17.6667 6.20792 15.1881 4.82664 13.4623C4.28937 12.7909 4.02073 12.4553 4.00113 11.7865C3.98153 11.1178 4.21739 10.7848 4.6891 10.1189ZM12.0181 15.1667C13.8591 15.1667 15.3515 13.6743 15.3515 11.8333C15.3515 9.99238 13.8591 8.5 12.0181 8.5C10.1772 8.5 8.68481 9.99238 8.68481 11.8333C8.68481 13.6743 10.1772 15.1667 12.0181 15.1667Z" fill="#C8C8C8"/>
<circle cx="12" cy="11.8008" r="2" fill="#C8C8C8"/>
</svg>
