<?xml version="1.0" encoding="UTF-8"?>
<svg id="uuid-65b9d8fc-79b2-438f-8758-3b3b08c79c54" data-name="레이어 1" xmlns="http://www.w3.org/2000/svg" viewBox="0 0 502.77 706.42">
  <defs>
    <style>
      .uuid-787c3f0c-384f-4485-9b4a-f9b8c6bfa2f5 {
        fill: #fced1d;
      }

      .uuid-10d4c2ee-c463-43e0-be40-4a1668889daa {
        fill: #221e1f;
      }
    </style>
  </defs>
  <g>
    <path class="uuid-787c3f0c-384f-4485-9b4a-f9b8c6bfa2f5" d="M74.17,513.42c93.43,50.36,421.5-161.42,428.53-264.41C508.52,163.86,151.82-48.55,59.45,10.09-21.09,61.22-23.23,460.92,74.17,513.42Z"/>
    <g>
      <path class="uuid-10d4c2ee-c463-43e0-be40-4a1668889daa" d="M40.08,243.46c-5.47,62.7,186.88,191.57,244.61,171.21,47.72-16.83,79.59-260.92,25.97-297.44-46.75-31.84-264.87,60.87-270.57,126.23Z"/>
      <path class="uuid-787c3f0c-384f-4485-9b4a-f9b8c6bfa2f5" d="M100.07,288.47c10.64,39.51,156.87,75.31,187.58,50,25.39-20.92-9.59-177.11-50.49-187.45-35.66-9.02-148.18,96.26-137.09,137.45Z"/>
    </g>
  </g>
  <g>
    <path class="uuid-787c3f0c-384f-4485-9b4a-f9b8c6bfa2f5" d="M44.98,661.64H26.72v43.4H0v-120.9H44.98c29.62,0,44.43,16.71,44.43,38.92,0,19.98-13.61,38.58-44.43,38.58Zm-2.24-23.42c11.71,0,16.71-5.86,16.71-15.16s-4.99-15.16-16.71-15.16H26.72v30.31h16.02Z"/>
    <path class="uuid-787c3f0c-384f-4485-9b4a-f9b8c6bfa2f5" d="M253.55,706.42c-28.25,0-48.57-18.94-48.57-49.43s19.98-49.43,48.57-49.43,47.88,18.6,47.88,47.88c0,2.76-.17,5.68-.52,8.61h-69.3c1.03,12.57,10.64,19.21,24.51,19.21,8.27,0,15.56-4.92,17.97-10.09h25.09c-4.65,18.77-21.7,33.24-45.64,33.24Zm-21.93-58.73h42.49c0-12.11-9.53-19.06-20.85-19.06s-19.66,6.75-21.64,19.06Z"/>
    <path class="uuid-787c3f0c-384f-4485-9b4a-f9b8c6bfa2f5" d="M149.3,706.42c-28.25,0-48.57-18.94-48.57-49.43s19.98-49.43,48.57-49.43,47.88,18.6,47.88,47.88c0,2.76-.17,5.68-.52,8.61H127.37c1.03,12.57,10.64,19.21,24.51,19.21,8.27,0,15.56-4.92,17.97-10.09h25.09c-4.65,18.77-21.7,33.24-45.64,33.24Zm-21.93-58.73h42.49c0-12.11-9.53-19.06-20.85-19.06s-19.66,6.75-21.64,19.06Z"/>
    <path class="uuid-787c3f0c-384f-4485-9b4a-f9b8c6bfa2f5" d="M317.07,571.24h25.67v76.79l29.11-39.1h36.34l-46.05,48.22,46.4,47.88h-36.51l-29.28-40.3v40.3h-25.67v-133.8Z"/>
    <path class="uuid-787c3f0c-384f-4485-9b4a-f9b8c6bfa2f5" d="M502.77,655.16c0-26.25-21.35-47.6-47.6-47.6s-47.6,21.35-47.6,47.6,21.35,47.6,47.6,47.6c9.55,0,18.45-2.84,25.91-7.7v10.37h21.56v-46.98c.07-1.09,.13-2.18,.13-3.29Zm-47.6,25.79c-14.22,0-25.79-11.57-25.79-25.79s11.57-25.79,25.79-25.79,25.79,11.57,25.79,25.79-11.57,25.79-25.79,25.79Z"/>
  </g>
</svg>