<?xml version="1.0" encoding="UTF-8"?>
<svg id="_레이어_1" data-name="레이어 1" xmlns="http://www.w3.org/2000/svg" viewBox="0 0 502.77 135.18">
  <defs>
    <style>
      .cls-1 {
        fill: #fced1d;
      }
    </style>
  </defs>
  <path class="cls-1" d="M44.98,90.4H26.72v43.4H0V12.9H44.98c29.62,0,44.43,16.71,44.43,38.92,0,19.98-13.61,38.58-44.43,38.58Zm-2.24-23.42c11.71,0,16.71-5.86,16.71-15.16s-4.99-15.16-16.71-15.16H26.72v30.31h16.02Z"/>
  <path class="cls-1" d="M253.55,135.18c-28.25,0-48.57-18.94-48.57-49.43s19.98-49.43,48.57-49.43,47.88,18.6,47.88,47.88c0,2.76-.17,5.68-.52,8.61h-69.3c1.03,12.57,10.64,19.21,24.51,19.21,8.27,0,15.56-4.92,17.97-10.09h25.09c-4.65,18.77-21.7,33.24-45.64,33.24Zm-21.93-58.73h42.49c0-12.11-9.53-19.06-20.85-19.06s-19.66,6.75-21.64,19.06Z"/>
  <path class="cls-1" d="M149.3,135.18c-28.25,0-48.57-18.94-48.57-49.43s19.98-49.43,48.57-49.43,47.88,18.6,47.88,47.88c0,2.76-.17,5.68-.52,8.61H127.37c1.03,12.57,10.64,19.21,24.51,19.21,8.27,0,15.56-4.92,17.97-10.09h25.09c-4.65,18.77-21.7,33.24-45.64,33.24Zm-21.93-58.73h42.49c0-12.11-9.53-19.06-20.85-19.06s-19.66,6.75-21.64,19.06Z"/>
  <path class="cls-1" d="M317.07,0h25.67V76.79l29.11-39.1h36.34l-46.05,48.22,46.4,47.88h-36.51l-29.28-40.3v40.3h-25.67V0Z"/>
  <path class="cls-1" d="M502.77,83.92c0-26.25-21.35-47.6-47.6-47.6s-47.6,21.35-47.6,47.6,21.35,47.6,47.6,47.6c9.55,0,18.45-2.84,25.91-7.7v10.37h21.56v-46.98c.07-1.09,.13-2.18,.13-3.29Zm-47.6,25.79c-14.22,0-25.79-11.57-25.79-25.79s11.57-25.79,25.79-25.79,25.79,11.57,25.79,25.79-11.57,25.79-25.79,25.79Z"/>
</svg>