<?xml version="1.0" encoding="UTF-8"?>
<svg id="uuid-12db2f9d-caa2-47dd-99d7-a8d650ce8e07" data-name="레이어 1" xmlns="http://www.w3.org/2000/svg" viewBox="0 0 450 536.05">
  <defs>
    <style>
      .uuid-a240ea7c-c611-4ea7-876b-6316a4aa86f7 {
        fill: #fced1d;
      }

      .uuid-e96c6a25-4873-44de-b198-ab40b3c6389c {
        fill: #221e1f;
      }
    </style>
  </defs>
  <g>
    <path class="uuid-a240ea7c-c611-4ea7-876b-6316a4aa86f7" d="M98.44,366.54c66.7,35.97,300.95-115.17,305.99-188.7C408.59,117.05,153.97-34.65,88.01,7.2c-57.51,36.49-59.1,321.85,10.43,359.34Z"/>
    <g>
      <path class="uuid-e96c6a25-4873-44de-b198-ab40b3c6389c" d="M74.14,173.81c-3.92,44.76,133.39,136.8,174.61,122.27,34.07-12.01,56.87-186.27,18.59-212.35-33.37-22.74-189.11,43.42-193.19,90.08Z"/>
      <path class="uuid-a240ea7c-c611-4ea7-876b-6316a4aa86f7" d="M116.96,205.95c7.59,28.21,111.98,53.79,133.91,35.73,18.13-14.93-6.82-126.44-36.02-133.83-25.46-6.44-105.81,68.7-97.9,98.11Z"/>
    </g>
  </g>
  <g>
    <path class="uuid-a240ea7c-c611-4ea7-876b-6316a4aa86f7" d="M40.27,495.93H23.93s0,38.84,0,38.84H0s.02-108.22,.02-108.22H40.28c26.51,.02,39.77,14.97,39.76,34.86,0,17.88-12.19,34.53-39.78,34.52Zm-2-20.96c10.48,0,14.95-5.24,14.96-13.56,0-8.32-4.47-13.57-14.95-13.57h-14.34s0,27.13,0,27.13h14.34Z"/>
    <path class="uuid-a240ea7c-c611-4ea7-876b-6316a4aa86f7" d="M226.93,536.05c-25.28,0-43.47-16.97-43.46-44.25,0-27.28,17.89-44.24,43.48-44.23,25.13,0,42.85,16.66,42.84,42.86,0,2.47-.16,5.09-.46,7.71h-62.02c.92,11.24,9.52,17.18,21.94,17.19,7.4,0,13.93-4.4,16.09-9.02h22.45c-4.17,16.81-19.43,29.75-40.86,29.75Zm-19.62-52.57h38.03c0-10.83-8.53-17.05-18.65-17.05-9.95,0-17.59,6.04-19.37,17.05Z"/>
    <path class="uuid-a240ea7c-c611-4ea7-876b-6316a4aa86f7" d="M133.62,536.03c-25.28,0-43.47-16.97-43.46-44.25,0-27.28,17.89-44.24,43.48-44.23,25.13,0,42.85,16.66,42.84,42.86,0,2.47-.16,5.09-.46,7.71h-62.02c.92,11.24,9.52,17.18,21.94,17.19,7.4,0,13.93-4.4,16.09-9.02h22.45c-4.17,16.81-19.43,29.75-40.86,29.75Zm-19.62-52.57h38.03c0-10.83-8.53-17.05-18.65-17.05-9.95,0-17.59,6.04-19.37,17.05Z"/>
    <path class="uuid-a240ea7c-c611-4ea7-876b-6316a4aa86f7" d="M283.81,415.08h22.98s-.02,68.74-.02,68.74l26.06-34.99h32.52s-41.23,43.16-41.23,43.16l41.51,42.86h-32.68s-26.2-36.08-26.2-36.08v36.07s-22.99,0-22.99,0l.03-119.75Z"/>
    <path class="uuid-a240ea7c-c611-4ea7-876b-6316a4aa86f7" d="M450,490.23c0-23.49-19.1-42.61-42.59-42.61-23.49,0-42.61,19.1-42.61,42.59,0,23.49,19.1,42.61,42.59,42.61,8.55,0,16.51-2.54,23.19-6.89v9.28s19.3,0,19.3,0v-42.04c.08-.97,.12-1.95,.12-2.94Zm-42.61,23.07c-12.73,0-23.08-10.36-23.07-23.08s10.36-23.08,23.08-23.07,23.08,10.36,23.07,23.08-10.36,23.08-23.08,23.07Z"/>
  </g>
</svg>