<?xml version="1.0" encoding="UTF-8"?>
<svg id="uuid-d1ed4ead-1943-4cd3-8a34-7becb3e741ea" data-name="레이어 1" xmlns="http://www.w3.org/2000/svg" viewBox="0 0 502.77 521.04">
  <defs>
    <style>
      .uuid-967e2a2d-c386-4207-a6ff-554f014000ea {
        fill: #fced1d;
      }

      .uuid-edcbb78f-feaf-410a-9b5f-2ef03143ea46 {
        fill: #221e1f;
      }
    </style>
  </defs>
  <path class="uuid-967e2a2d-c386-4207-a6ff-554f014000ea" d="M74.17,513.42c93.43,50.36,421.5-161.42,428.53-264.41C508.52,163.86,151.82-48.55,59.45,10.09-21.09,61.22-23.23,460.92,74.17,513.42Z"/>
  <g>
    <path class="uuid-edcbb78f-feaf-410a-9b5f-2ef03143ea46" d="M40.08,243.46c-5.47,62.7,186.88,191.57,244.61,171.21,47.72-16.83,79.59-260.92,25.97-297.44-46.75-31.84-264.87,60.87-270.57,126.23Z"/>
    <path class="uuid-967e2a2d-c386-4207-a6ff-554f014000ea" d="M100.07,288.47c10.64,39.51,156.87,75.31,187.58,50,25.39-20.92-9.59-177.11-50.49-187.45-35.66-9.02-148.18,96.26-137.09,137.45Z"/>
  </g>
</svg>