<?xml version="1.0" encoding="UTF-8"?>
<svg id="Layer_1" xmlns="http://www.w3.org/2000/svg" viewBox="0 0 2000 2000">
  <defs>
    <style>
      .cls-1{fill:#231f20;}.cls-2{fill:#fcee21;}
    </style>
  </defs>
  <g>
    <path class="cls-2" d="M897.2,1098.43c66.7,35.95,300.92-115.24,305.94-188.77,4.15-60.79-250.51-212.43-316.45-170.57-57.5,36.5-59.02,321.86,10.51,359.34Z"/>
    <g>
      <path class="cls-1" d="M872.85,905.7c-3.91,44.76,133.42,136.77,174.63,122.23,34.07-12.02,56.82-186.28,18.54-212.35-33.38-22.73-189.1,43.46-193.17,90.12Z"/>
      <path class="cls-2" d="M915.68,937.84c7.6,28.21,111.99,53.77,133.92,35.7,18.13-14.94-6.85-126.44-36.05-133.83-25.46-6.44-105.79,68.72-97.87,98.13Z"/>
    </g>
  </g>
  <g>
    <path class="cls-2" d="M793.59,1223.33h-18.26v43.4h-26.72v-120.9h44.98c29.62,0,44.43,16.71,44.43,38.92,0,19.98-13.61,38.58-44.43,38.58Zm-2.24-23.42c11.71,0,16.71-5.86,16.71-15.16s-4.99-15.16-16.71-15.16h-16.02v30.31h16.02Z"/>
    <path class="cls-2" d="M1002.16,1268.11c-28.25,0-48.57-18.94-48.57-49.43s19.98-49.43,48.57-49.43,47.88,18.6,47.88,47.88c0,2.76-.17,5.68-.52,8.61h-69.3c1.03,12.57,10.64,19.21,24.51,19.21,8.27,0,15.56-4.92,17.97-10.09h25.09c-4.65,18.77-21.7,33.24-45.64,33.24Zm-21.93-58.73h42.49c0-12.11-9.53-19.06-20.85-19.06s-19.66,6.75-21.64,19.06Z"/>
    <path class="cls-2" d="M897.91,1268.11c-28.25,0-48.57-18.94-48.57-49.43s19.98-49.43,48.57-49.43,47.88,18.6,47.88,47.88c0,2.76-.17,5.68-.52,8.61h-69.3c1.03,12.57,10.64,19.21,24.51,19.21,8.27,0,15.56-4.92,17.97-10.09h25.09c-4.65,18.77-21.7,33.24-45.64,33.24Zm-21.93-58.73h42.49c0-12.11-9.53-19.06-20.85-19.06s-19.66,6.75-21.64,19.06Z"/>
    <path class="cls-2" d="M1065.68,1132.93h25.67v76.79l29.11-39.1h36.34l-46.05,48.22,46.4,47.88h-36.51l-29.28-40.3v40.3h-25.67v-133.8Z"/>
    <path class="cls-2" d="M1251.39,1216.85c0-26.25-21.35-47.6-47.6-47.6s-47.6,21.35-47.6,47.6,21.35,47.6,47.6,47.6c9.55,0,18.45-2.84,25.91-7.7v10.37h21.56v-46.98c.07-1.09,.13-2.18,.13-3.29Zm-47.6,25.79c-14.22,0-25.79-11.57-25.79-25.79s11.57-25.79,25.79-25.79,25.79,11.57,25.79,25.79-11.57,25.79-25.79,25.79Z"/>
  </g>
</svg>