<svg width="15" height="15" viewBox="0 0 15 15" fill="none" xmlns="http://www.w3.org/2000/svg">
<path d="M5.14522 8.22798L2.62752 6.8562C0.832137 5.87798 -0.0655633 5.38887 0.00372697 4.72579C0.0730177 4.06272 1.05244 3.76976 3.01128 3.18385L11.982 0.500586C13.5471 0.0324684 14.3296 -0.20159 14.7515 0.220376C15.1735 0.642344 14.9394 1.42485 14.4713 2.98987L11.7879 11.9605C11.202 13.9193 10.909 14.8987 10.2459 14.968C9.58285 15.0373 9.09375 14.1396 8.11555 12.3442L6.74394 9.82671C6.69169 9.73082 6.64431 9.64384 6.60048 9.56452L10.7763 4.1956L5.40739 8.37142C5.32806 8.3276 5.24112 8.28023 5.14522 8.22798Z" fill="#9C9C9C"/>
</svg>
