<svg width="24" height="24" viewBox="0 0 24 24" fill="none" xmlns="http://www.w3.org/2000/svg">
<path d="M13.7089 5.08915L14.5547 5.00457V5.00457L13.7089 5.08915ZM13.663 4.74895L14.4858 4.53556V4.53555L13.663 4.74895ZM13.7953 5.69811L12.99 5.96999V5.96999L13.7953 5.69811ZM15.1866 6.27438L15.5638 7.03609V7.03609L15.1866 6.27438ZM15.6783 5.9049L15.14 5.24704L15.14 5.24704L15.6783 5.9049ZM15.9513 5.69683L15.5204 4.96415L15.5204 4.96415L15.9513 5.69683ZM17.0485 5.75155L16.5468 6.43772V6.43772L17.0485 5.75155ZM17.2994 5.98575L16.6984 6.58679L16.7081 6.59648L16.7181 6.60585L17.2994 5.98575ZM17.2994 5.98576L17.9005 5.38472L17.8908 5.37503L17.8808 5.36565L17.2994 5.98576ZM18.0142 6.70053L17.4132 7.30157L18.0142 6.70053ZM18.2484 6.95151L17.5623 7.45317L17.5623 7.45318L18.2484 6.95151ZM18.3031 8.04864L17.5705 7.61775L17.5705 7.61775L18.3031 8.04864ZM18.0951 8.32168L18.6961 8.92272L18.7261 8.89275L18.7529 8.85993L18.0951 8.32168ZM18.0951 8.32169L17.494 7.72065L17.464 7.75063L17.4372 7.78344L18.0951 8.32169ZM17.7256 8.81342L18.4873 9.19062L18.4873 9.19061L17.7256 8.81342ZM18.3018 10.2046L18.5737 9.3993L18.3018 10.2046ZM18.9108 10.2911L18.9954 9.4453L18.9954 9.4453L18.9108 10.2911ZM19.2511 10.337L19.4645 9.51424L19.4645 9.51424L19.2511 10.337ZM19.9881 11.1515L20.8281 11.021V11.021L19.9881 11.1515ZM19.9882 12.8484L20.8281 12.9788V12.9788L19.9882 12.8484ZM19.251 13.663L19.4643 14.4858L19.4643 14.4858L19.251 13.663ZM18.9109 13.7089L18.9955 14.5547H18.9955L18.9109 13.7089ZM18.3023 13.7953L18.0305 12.9899H18.0305L18.3023 13.7953ZM17.7259 15.1867L16.9643 15.564V15.564L17.7259 15.1867ZM18.0952 15.678L17.4373 16.2163L17.4373 16.2163L18.0952 15.678ZM18.0952 15.6781L17.4373 16.2163L17.4373 16.2163L18.0952 15.6781ZM18.3031 15.9509L19.0358 15.5199L19.0358 15.5199L18.3031 15.9509ZM18.2484 17.0482L18.9345 17.55L18.9345 17.55L18.2484 17.0482ZM18.0144 17.299L18.6154 17.9L18.6154 17.9L18.0144 17.299ZM18.0143 17.299L18.6154 17.9001L18.0143 17.299ZM17.2995 18.0139L16.6984 17.4128L17.2995 18.0139ZM17.0485 18.2481L17.5502 18.9343L17.5502 18.9343L17.0485 18.2481ZM15.9514 18.3028L15.5205 19.0355L15.5205 19.0355L15.9514 18.3028ZM15.6784 18.0948L15.1186 18.7345L15.1292 18.7437L15.1401 18.7526L15.6784 18.0948ZM15.6783 18.0947L16.2381 17.4551L16.2275 17.4458L16.2166 17.4369L15.6783 18.0947ZM15.1866 17.7253L14.8094 18.487L15.1866 17.7253ZM13.7954 18.3015L14.6007 18.5734L14.6007 18.5734L13.7954 18.3015ZM13.7089 18.9106L14.5524 19.0161L14.5537 19.0056L14.5547 18.9952L13.7089 18.9106ZM13.7089 18.9107L14.5504 19.0309L14.5514 19.0235L14.5524 19.0161L13.7089 18.9107ZM13.7089 18.9107L12.8675 18.7905L12.8649 18.8082L12.8631 18.8261L13.7089 18.9107ZM13.663 19.2511L14.4857 19.4646L14.4857 19.4646L13.663 19.2511ZM12.8486 19.9881L12.7181 19.1482L12.718 19.1482L12.8486 19.9881ZM11.1515 19.9881L11.021 20.8281H11.021L11.1515 19.9881ZM10.337 19.2511L9.51424 19.4645V19.4645L10.337 19.2511ZM10.2911 18.9108L9.4453 18.9954V18.9954L10.2911 18.9108ZM10.2046 18.3018L11.01 18.0299L11.01 18.0299L10.2046 18.3018ZM8.81343 17.7256L8.43623 16.9638L8.81343 17.7256ZM8.32166 18.0951L8.85991 18.7529L8.85991 18.7529L8.32166 18.0951ZM8.04859 18.3032L8.47948 19.0359H8.47948L8.04859 18.3032ZM6.95149 18.2485L6.44983 18.9346L6.44983 18.9347L6.95149 18.2485ZM6.70049 18.0142L7.30153 17.4132L7.30153 17.4132L6.70049 18.0142ZM5.98573 17.2995L5.35915 17.8738L5.37163 17.8875L5.38469 17.9005L5.98573 17.2995ZM5.98573 17.2995L6.61231 16.7251L6.59983 16.7115L6.58677 16.6984L5.98573 17.2995ZM5.75151 17.0485L6.43769 16.5468L6.43768 16.5468L5.75151 17.0485ZM5.69679 15.9514L6.42947 16.3823L6.42948 16.3823L5.69679 15.9514ZM5.90488 15.6783L6.56274 16.2166L6.58143 16.1937L6.5985 16.1696L5.90488 15.6783ZM5.90488 15.6783L5.24702 15.1401L5.22833 15.1629L5.21126 15.187L5.90488 15.6783ZM6.27437 15.1866L7.03609 15.5638H7.03609L6.27437 15.1866ZM5.69811 13.7953L5.97 12.99L5.96999 12.99L5.69811 13.7953ZM5.08915 13.7089L5.17372 12.8631L5.17372 12.8631L5.08915 13.7089ZM4.74895 13.663L4.96234 12.8402H4.96234L4.74895 13.663ZM4.01185 12.8485L4.85178 12.718L4.01185 12.8485ZM4.01186 11.1514L3.17194 11.0209L4.01186 11.1514ZM4.74887 10.337L4.53542 9.51427L4.53541 9.51427L4.74887 10.337ZM5.08924 10.2911L5.17382 11.1369H5.17382L5.08924 10.2911ZM5.69852 10.2046L5.42653 9.39927H5.42653L5.69852 10.2046ZM6.27473 8.81349L7.03649 8.43637L7.03649 8.43637L6.27473 8.81349ZM5.90503 8.32146L6.56289 7.78321L6.55784 7.77704L6.55268 7.77096L5.90503 8.32146ZM5.90502 8.32145L5.24716 8.85971L5.25221 8.86588L5.25737 8.87196L5.90502 8.32145ZM5.69677 8.04818L6.4295 7.61737L6.4295 7.61737L5.69677 8.04818ZM5.75148 6.95124L6.43771 7.45283L6.43771 7.45283L5.75148 6.95124ZM6.70052 5.98541L6.09948 5.38437L6.09948 5.38437L6.70052 5.98541ZM6.95152 5.75118L6.44987 5.065L6.44987 5.065L6.95152 5.75118ZM8.04863 5.69646L8.47952 4.96377L8.47952 4.96377L8.04863 5.69646ZM8.32176 5.90461L8.86001 5.24675L8.86001 5.24675L8.32176 5.90461ZM8.81334 6.27401L8.43604 7.03568L8.43604 7.03569L8.81334 6.27401ZM10.2047 5.69768L9.39934 5.42589V5.42589L10.2047 5.69768ZM10.2911 5.08904L11.1369 5.17362V5.17362L10.2911 5.08904ZM10.337 4.74903L9.5142 4.5357L9.5142 4.53571L10.337 4.74903ZM11.1516 4.01184L11.0212 3.1719V3.1719L11.1516 4.01184ZM12.8485 4.01185L12.979 3.17192V3.17192L12.8485 4.01185ZM14.5547 5.00457C14.5401 4.85827 14.5257 4.6896 14.4858 4.53556L12.8402 4.96234C12.8372 4.95073 12.8388 4.9521 12.8434 4.98844C12.8485 5.02779 12.8538 5.08068 12.8631 5.17373L14.5547 5.00457ZM14.6007 5.42622C14.6098 5.45308 14.6049 5.45099 14.5937 5.36671C14.583 5.28663 14.572 5.17751 14.5547 5.00457L12.8631 5.17373C12.8906 5.44815 12.9143 5.74575 12.99 5.96999L14.6007 5.42622ZM14.8094 5.51266C14.728 5.55296 14.6297 5.51227 14.6007 5.42622L12.99 5.96999C13.3483 7.03125 14.56 7.53317 15.5638 7.03609L14.8094 5.51266ZM15.14 5.24704C15.0055 5.35709 14.9206 5.42646 14.8564 5.47556C14.7889 5.52724 14.784 5.52524 14.8094 5.51266L15.5638 7.03609C15.7759 6.93106 16.0031 6.7374 16.2166 6.56277L15.14 5.24704ZM15.5204 4.96415C15.3832 5.04482 15.2538 5.15394 15.14 5.24704L16.2165 6.56277C16.2889 6.50356 16.3301 6.46995 16.3615 6.44568C16.3905 6.42327 16.3926 6.42343 16.3822 6.42951L15.5204 4.96415ZM17.5501 5.06538C16.9543 4.62978 16.1566 4.58999 15.5204 4.96415L16.3822 6.42951C16.4338 6.39917 16.4985 6.4024 16.5468 6.43772L17.5501 5.06538ZM17.9005 5.38471C17.7965 5.28075 17.6786 5.1593 17.5501 5.06538L16.5468 6.43772C16.5371 6.43064 16.5392 6.43069 16.5658 6.45587C16.5946 6.48314 16.6323 6.52067 16.6984 6.58679L17.9005 5.38471ZM17.8808 5.36565L17.8808 5.36564L16.7181 6.60585L16.7181 6.60587L17.8808 5.36565ZM18.6152 6.09949L17.9005 5.38472L16.6984 6.5868L17.4132 7.30157L18.6152 6.09949ZM18.9346 6.44985C18.8407 6.32137 18.7192 6.20346 18.6152 6.09949L17.4132 7.30157C17.4793 7.3677 17.5168 7.40534 17.5441 7.43415C17.5693 7.46076 17.5693 7.46286 17.5623 7.45317L18.9346 6.44985ZM19.0358 8.47954C19.41 7.84335 19.3702 7.04565 18.9346 6.44985L17.5623 7.45318C17.5976 7.50148 17.6008 7.56616 17.5705 7.61775L19.0358 8.47954ZM18.7529 8.85993C18.846 8.74614 18.9552 8.61672 19.0358 8.47954L17.5705 7.61775C17.5765 7.60741 17.5767 7.6095 17.5543 7.63848C17.53 7.66986 17.4964 7.71106 17.4372 7.78343L18.7529 8.85993ZM18.6961 8.92273L18.6961 8.92272L17.494 7.72064L17.494 7.72065L18.6961 8.92273ZM18.4873 9.19061C18.4747 9.21602 18.4727 9.21108 18.5244 9.14356C18.5735 9.0794 18.6429 8.99445 18.7529 8.85994L17.4372 7.78344C17.2626 7.99689 17.0689 8.22411 16.9638 8.43622L18.4873 9.19061ZM18.5737 9.3993C18.4877 9.37025 18.447 9.272 18.4873 9.19062L16.9638 8.43621C16.4668 9.43997 16.9687 10.6517 18.0299 11.01L18.5737 9.3993ZM18.9954 9.4453C18.8225 9.42801 18.7133 9.41699 18.6332 9.40634C18.549 9.39514 18.5469 9.39024 18.5737 9.3993L18.0299 11.01C18.2542 11.0857 18.5518 11.1094 18.8263 11.1369L18.9954 9.4453ZM19.4645 9.51424C19.3104 9.47428 19.1417 9.45993 18.9954 9.4453L18.8263 11.1369C18.9193 11.1462 18.9722 11.1515 19.0116 11.1566C19.0479 11.1612 19.0493 11.1628 19.0377 11.1598L19.4645 9.51424ZM20.8281 11.021C20.7148 10.2917 20.1789 9.69954 19.4645 9.51424L19.0377 11.1598C19.0956 11.1748 19.139 11.2228 19.1482 11.282L20.8281 11.021ZM20.85 11.4946C20.85 11.3476 20.8525 11.1783 20.8281 11.021L19.1482 11.282C19.1464 11.2701 19.1478 11.2716 19.1488 11.3083C19.1499 11.3479 19.15 11.4011 19.15 11.4946H20.85ZM20.85 12.5055V11.4946H19.15V12.5055H20.85ZM20.8281 12.9788C20.8525 12.8216 20.85 12.6525 20.85 12.5055H19.15C19.15 12.599 19.1499 12.6521 19.1488 12.6917C19.1478 12.7284 19.1464 12.7299 19.1482 12.718L20.8281 12.9788ZM19.4643 14.4858C20.1788 14.3005 20.7148 13.7082 20.8281 12.9788L19.1482 12.718C19.139 12.7772 19.0956 12.8252 19.0376 12.8402L19.4643 14.4858ZM18.9955 14.5547C19.1417 14.5401 19.3103 14.5257 19.4643 14.4858L19.0377 12.8402C19.0493 12.8372 19.0479 12.8388 19.0116 12.8434C18.9722 12.8485 18.9193 12.8538 18.8263 12.8631L18.9955 14.5547ZM18.5741 14.6007C18.5472 14.6097 18.5493 14.6048 18.6335 14.5936C18.7136 14.583 18.8226 14.572 18.9955 14.5547L18.8263 12.8631C18.5521 12.8906 18.2546 12.9143 18.0305 12.9899L18.5741 14.6007ZM18.4876 14.8094C18.4473 14.728 18.488 14.6297 18.5741 14.6007L18.0305 12.9899C16.969 13.3481 16.467 14.5601 16.9643 15.564L18.4876 14.8094ZM18.753 15.1398C18.6431 15.0054 18.5737 14.9205 18.5247 14.8564C18.473 14.7889 18.475 14.784 18.4876 14.8094L16.9643 15.564C17.0693 15.776 17.2628 16.003 17.4373 16.2163L18.753 15.1398ZM18.753 15.1398L18.753 15.1398L17.4373 16.2163L17.4373 16.2163L18.753 15.1398ZM19.0358 15.5199C18.9551 15.3829 18.8461 15.2535 18.753 15.1398L17.4373 16.2163C17.4965 16.2886 17.5301 16.3298 17.5543 16.3612C17.5767 16.3901 17.5766 16.3922 17.5705 16.3819L19.0358 15.5199ZM18.9345 17.55C19.3703 16.9541 19.4101 16.1562 19.0358 15.5199L17.5705 16.3819C17.6008 16.4335 17.5976 16.4982 17.5623 16.5465L18.9345 17.55ZM18.6154 17.9C18.7193 17.7962 18.8406 17.6783 18.9345 17.55L17.5623 16.5465C17.5694 16.5368 17.5693 16.5389 17.5441 16.5655C17.5169 16.5943 17.4794 16.6319 17.4133 16.698L18.6154 17.9ZM18.6154 17.9001L18.6154 17.9L17.4133 16.698L17.4133 16.698L18.6154 17.9001ZM17.9005 18.6149L18.6154 17.9001L17.4133 16.698L16.6984 17.4128L17.9005 18.6149ZM17.5502 18.9343C17.6786 18.8403 17.7965 18.7189 17.9005 18.6149L16.6984 17.4128C16.6323 17.479 16.5947 17.5165 16.5659 17.5438C16.5392 17.569 16.5371 17.569 16.5468 17.5619L17.5502 18.9343ZM15.5205 19.0355C16.1567 19.4097 16.9544 19.3699 17.5502 18.9343L16.5468 17.5619C16.4985 17.5972 16.4338 17.6005 16.3823 17.5701L15.5205 19.0355ZM15.1401 18.7526C15.2539 18.8457 15.3833 18.9548 15.5205 19.0355L16.3823 17.5701C16.3926 17.5762 16.3905 17.5764 16.3615 17.554C16.3302 17.5297 16.289 17.4961 16.2166 17.4369L15.1401 18.7526ZM15.1186 18.7344L15.1186 18.7345L16.2381 17.4551L16.2381 17.4551L15.1186 18.7344ZM14.8094 18.487C14.784 18.4744 14.789 18.4724 14.8565 18.5241C14.9206 18.5732 15.0056 18.6426 15.1401 18.7526L16.2166 17.4369C16.0031 17.2622 15.7759 17.0686 15.5638 16.9635L14.8094 18.487ZM14.6007 18.5734C14.6298 18.4874 14.728 18.4467 14.8094 18.487L15.5638 16.9635C14.5601 16.4665 13.3483 16.9684 12.99 18.0296L14.6007 18.5734ZM14.5547 18.9952C14.572 18.8222 14.583 18.7131 14.5937 18.633C14.6049 18.5486 14.6098 18.5466 14.6007 18.5734L12.99 18.0296C12.9143 18.2539 12.8906 18.5516 12.8632 18.8261L14.5547 18.9952ZM14.5524 19.0161L14.5524 19.0161L12.8655 18.8052L12.8655 18.8052L14.5524 19.0161ZM14.5504 19.0309L14.5504 19.0309L12.8675 18.7904L12.8675 18.7905L14.5504 19.0309ZM14.4857 19.4646C14.5257 19.3105 14.5401 19.1417 14.5547 18.9952L12.8631 18.8261C12.8538 18.9192 12.8485 18.9722 12.8434 19.0115C12.8388 19.0479 12.8372 19.0493 12.8402 19.0377L14.4857 19.4646ZM12.9791 20.8281C13.7083 20.7147 14.3004 20.1789 14.4857 19.4646L12.8402 19.0377C12.8252 19.0956 12.7772 19.139 12.7181 19.1482L12.9791 20.8281ZM12.5053 20.85C12.6524 20.85 12.8218 20.8525 12.9791 20.8281L12.718 19.1482C12.7299 19.1464 12.7284 19.1478 12.6917 19.1488C12.6521 19.1499 12.5989 19.15 12.5053 19.15V20.85ZM11.4946 20.85H12.5053V19.15H11.4946V20.85ZM11.021 20.8281C11.1783 20.8525 11.3476 20.85 11.4946 20.85V19.15C11.4011 19.15 11.3479 19.1499 11.3083 19.1488C11.2716 19.1478 11.2701 19.1464 11.282 19.1482L11.021 20.8281ZM9.51424 19.4645C9.69954 20.1789 10.2917 20.7148 11.021 20.8281L11.282 19.1482C11.2228 19.139 11.1748 19.0956 11.1598 19.0377L9.51424 19.4645ZM9.4453 18.9954C9.45993 19.1417 9.47428 19.3104 9.51424 19.4645L11.1598 19.0377C11.1628 19.0493 11.1612 19.0479 11.1566 19.0116C11.1515 18.9722 11.1462 18.9193 11.1369 18.8263L9.4453 18.9954ZM9.3993 18.5737C9.39023 18.5469 9.39514 18.549 9.40634 18.6333C9.41699 18.7133 9.42801 18.8225 9.4453 18.9954L11.1369 18.8263C11.1094 18.5518 11.0857 18.2542 11.01 18.0299L9.3993 18.5737ZM9.19062 18.4873C9.272 18.447 9.37025 18.4877 9.3993 18.5737L11.01 18.0299C10.6517 16.9687 9.43998 16.4668 8.43623 16.9638L9.19062 18.4873ZM8.85991 18.7529C8.99444 18.6429 9.0794 18.5735 9.14355 18.5244C9.21108 18.4727 9.21602 18.4747 9.19062 18.4873L8.43623 16.9638C8.22411 17.0689 7.99688 17.2626 7.78341 17.4372L8.85991 18.7529ZM8.47948 19.0359C8.61668 18.9552 8.7461 18.8461 8.85991 18.7529L7.78341 17.4372C7.71103 17.4964 7.66983 17.5301 7.63845 17.5543C7.60946 17.5767 7.60737 17.5766 7.61771 17.5705L8.47948 19.0359ZM6.44983 18.9347C7.04562 19.3702 7.84331 19.41 8.47948 19.0359L7.61771 17.5705C7.56612 17.6008 7.50145 17.5976 7.45314 17.5623L6.44983 18.9347ZM6.09944 18.6153C6.20342 18.7193 6.32134 18.8407 6.44983 18.9346L7.45314 17.5623C7.46283 17.5694 7.46072 17.5693 7.43411 17.5441C7.4053 17.5169 7.36765 17.4793 7.30153 17.4132L6.09944 18.6153ZM5.38469 17.9005L6.09944 18.6153L7.30153 17.4132L6.58678 16.6984L5.38469 17.9005ZM5.35915 17.8738L5.35915 17.8738L6.61232 16.7251L6.61231 16.7251L5.35915 17.8738ZM5.06533 17.5501C5.15926 17.6786 5.28072 17.7965 5.38469 17.9005L6.58677 16.6984C6.52064 16.6323 6.48311 16.5947 6.45584 16.5659C6.43065 16.5393 6.43061 16.5372 6.43769 16.5468L5.06533 17.5501ZM4.9641 15.5205C4.58996 16.1567 4.62975 16.9544 5.06533 17.5502L6.43768 16.5468C6.40236 16.4985 6.39914 16.4338 6.42947 16.3823L4.9641 15.5205ZM5.24702 15.1401C5.15391 15.2539 5.04478 15.3833 4.9641 15.5205L6.42948 16.3823C6.42339 16.3926 6.42323 16.3905 6.44565 16.3615C6.46991 16.3301 6.50352 16.289 6.56274 16.2166L5.24702 15.1401ZM5.21126 15.187L5.21126 15.187L6.5985 16.1696L6.5985 16.1696L5.21126 15.187ZM5.51266 14.8094C5.52524 14.784 5.52723 14.7889 5.47555 14.8564C5.42645 14.9206 5.35708 15.0055 5.24702 15.1401L6.56275 16.2166C6.73739 16.0031 6.93106 15.7759 7.03609 15.5638L5.51266 14.8094ZM5.42622 14.6007C5.51226 14.6297 5.55296 14.728 5.51266 14.8094L7.03609 15.5638C7.53316 14.56 7.03124 13.3483 5.97 12.99L5.42622 14.6007ZM5.00457 14.5547C5.1775 14.572 5.28662 14.583 5.3667 14.5937C5.45099 14.6049 5.45307 14.6098 5.42622 14.6007L5.96999 12.99C5.74575 12.9143 5.44815 12.8906 5.17372 12.8631L5.00457 14.5547ZM4.53556 14.4858C4.6896 14.5257 4.85827 14.5401 5.00457 14.5547L5.17372 12.8631C5.08068 12.8538 5.02779 12.8485 4.98844 12.8434C4.9521 12.8388 4.95073 12.8372 4.96234 12.8402L4.53556 14.4858ZM3.17192 12.979C3.2852 13.7083 3.82114 14.3005 4.53556 14.4858L4.96234 12.8402C4.90442 12.8252 4.86096 12.7772 4.85178 12.718L3.17192 12.979ZM3.15 12.5054C3.15 12.6525 3.14749 12.8217 3.17192 12.979L4.85178 12.718C4.85362 12.7299 4.85217 12.7284 4.85116 12.6917C4.85007 12.6521 4.85 12.5989 4.85 12.5054H3.15ZM3.15 11.4947V12.5054H4.85V11.4947H3.15ZM3.17194 11.0209C3.14749 11.1782 3.15 11.3476 3.15 11.4947H4.85C4.85 11.4011 4.85007 11.3479 4.85116 11.3083C4.85217 11.2716 4.85362 11.2701 4.85178 11.282L3.17194 11.0209ZM4.53541 9.51427C3.82111 9.69959 3.28527 10.2917 3.17194 11.0209L4.85178 11.282C4.86097 11.2228 4.90441 11.1748 4.96233 11.1598L4.53541 9.51427ZM5.00467 9.44529C4.85829 9.45993 4.68954 9.47429 4.53542 9.51427L4.96233 11.1598C4.95071 11.1628 4.95208 11.1612 4.98844 11.1566C5.02781 11.1515 5.08073 11.1462 5.17382 11.1369L5.00467 9.44529ZM5.42653 9.39927C5.4534 9.3902 5.45132 9.39511 5.36699 9.40632C5.28687 9.41697 5.17769 9.42799 5.00467 9.44529L5.17382 11.1369C5.44838 11.1094 5.74615 11.0857 5.97051 11.0099L5.42653 9.39927ZM5.51296 9.19061C5.55325 9.27199 5.51256 9.37022 5.42653 9.39927L5.9705 11.0099C7.03154 10.6515 7.53336 9.44004 7.03649 8.43637L5.51296 9.19061ZM5.24716 8.85971C5.35729 8.99431 5.4267 9.07932 5.47583 9.14351C5.52755 9.21109 5.52555 9.21603 5.51297 9.19061L7.03649 8.43637C6.93143 8.22415 6.73764 7.99679 6.56289 7.78321L5.24716 8.85971ZM5.25737 8.87196L5.25738 8.87196L6.55268 7.77096L6.55267 7.77095L5.25737 8.87196ZM4.96403 8.47899C5.04476 8.61629 5.15397 8.74581 5.24716 8.85971L6.56288 7.7832C6.50362 7.71077 6.46998 7.66953 6.44569 7.63813C6.42325 7.60911 6.42342 7.60702 6.4295 7.61737L4.96403 8.47899ZM5.06525 6.44966C4.62982 7.04538 4.59004 7.8429 4.96403 8.47899L6.4295 7.61737C6.39918 7.56579 6.4024 7.50113 6.43771 7.45283L5.06525 6.44966ZM5.38483 6.09903C5.28078 6.20308 5.15923 6.32108 5.06525 6.44966L6.43771 7.45283C6.43063 7.46252 6.43067 7.46042 6.45588 7.43379C6.48317 7.40496 6.52074 7.36728 6.58691 7.30111L5.38483 6.09903ZM6.09948 5.38437L5.38483 6.09903L6.58691 7.30111L7.30156 6.58646L6.09948 5.38437ZM6.09948 5.38437L6.09948 5.38437L7.30156 6.58646L7.30156 6.58645L6.09948 5.38437ZM6.44987 5.065C6.32138 5.15893 6.20346 5.2804 6.09948 5.38437L7.30156 6.58645C7.36769 6.52033 7.40534 6.48278 7.43415 6.45551C7.46076 6.43032 7.46286 6.43028 7.45318 6.43735L6.44987 5.065ZM8.47952 4.96377C7.84334 4.58964 7.04566 4.62942 6.44987 5.065L7.45318 6.43736C7.50148 6.40204 7.56616 6.39881 7.61774 6.42915L8.47952 4.96377ZM8.86001 5.24675C8.74617 5.15361 8.61672 5.04445 8.47952 4.96377L7.61774 6.42915C7.6074 6.42306 7.60949 6.4229 7.63849 6.44533C7.66989 6.46961 7.71111 6.50324 7.78351 6.56247L8.86001 5.24675ZM9.19064 5.51234C9.21604 5.52492 9.2111 5.52691 9.14358 5.47523C9.07943 5.42614 8.99449 5.35678 8.86001 5.24675L7.7835 6.56247C7.99691 6.73708 8.22406 6.93068 8.43604 7.03568L9.19064 5.51234ZM9.39934 5.42589C9.3703 5.51196 9.27203 5.55266 9.19064 5.51234L8.43604 7.03569C9.4399 7.53295 10.6519 7.03094 11.0101 5.96948L9.39934 5.42589ZM9.44531 5.00447C9.42803 5.17731 9.41702 5.28637 9.40638 5.36641C9.39519 5.45065 9.39029 5.45273 9.39934 5.42589L11.0101 5.96948C11.0857 5.74534 11.1094 5.4479 11.1369 5.17362L9.44531 5.00447ZM9.5142 4.53571C9.47428 4.68967 9.45994 4.85824 9.44531 5.00447L11.1369 5.17362C11.1462 5.08063 11.1515 5.02777 11.1566 4.98844C11.1612 4.95211 11.1628 4.95075 11.1598 4.96235L9.5142 4.53571ZM11.0212 3.1719C10.2918 3.28514 9.69946 3.82116 9.5142 4.5357L11.1598 4.96235C11.1748 4.90442 11.2228 4.86096 11.282 4.85178L11.0212 3.1719ZM11.4945 3.15C11.3475 3.15 11.1784 3.1475 11.0212 3.1719L11.282 4.85178C11.2701 4.85361 11.2716 4.85216 11.3083 4.85116C11.3479 4.85007 11.401 4.85 11.4945 4.85V3.15ZM12.5054 3.15H11.4945V4.85H12.5054V3.15ZM12.979 3.17192C12.8217 3.14749 12.6524 3.15 12.5054 3.15V4.85C12.5989 4.85 12.6521 4.85007 12.6917 4.85116C12.7284 4.85217 12.7299 4.85362 12.718 4.85178L12.979 3.17192ZM14.4858 4.53555C14.3005 3.82114 13.7083 3.28521 12.979 3.17192L12.718 4.85178C12.7772 4.86096 12.8252 4.90442 12.8402 4.96234L14.4858 4.53555ZM14.15 12C14.15 13.1874 13.1874 14.15 12 14.15V15.85C14.1263 15.85 15.85 14.1263 15.85 12H14.15ZM12 9.85C13.1874 9.85 14.15 10.8126 14.15 12H15.85C15.85 9.8737 14.1263 8.15 12 8.15V9.85ZM9.85 12C9.85 10.8126 10.8126 9.85 12 9.85V8.15C9.8737 8.15 8.15 9.8737 8.15 12H9.85ZM12 14.15C10.8126 14.15 9.85 13.1874 9.85 12H8.15C8.15 14.1263 9.8737 15.85 12 15.85V14.15Z" fill="#E2E2E2"/>
</svg>
